<svg enable-background="new 0 0 5961 1854.3" viewBox="0 0 5961 1854.3" xmlns="http://www.w3.org/2000/svg" xmlns:xlink="http://www.w3.org/1999/xlink"><linearGradient id="a"><stop offset="0" stop-color="#00f6fe"/><stop offset="1" stop-color="#00fed6"/></linearGradient><linearGradient id="b" gradientTransform="matrix(.9848 -.1736 .1736 .9848 -199.4986 552.608)" gradientUnits="userSpaceOnUse" x1="1045.2516" x2="1045.2516" xlink:href="#a" y1="1368.5286" y2="-238.7396"/><linearGradient id="c" gradientTransform="matrix(.9848 -.1736 .1736 .9848 -199.4986 552.608)" gradientUnits="userSpaceOnUse" x1="1045.2275" x2="1045.2275" y1="-166.0413" y2="1295.8204"><stop offset="0" stop-color="#0a1021"/><stop offset="1" stop-color="#262c4c"/></linearGradient><linearGradient id="d" gradientTransform="matrix(.9848 -.1736 .1736 .9848 -199.4986 552.608)" gradientUnits="userSpaceOnUse" x1="1276.4486" x2="1276.4486" xlink:href="#a" y1="1134.6553" y2="361.9432"/><linearGradient id="e" gradientTransform="matrix(.9848 -.1736 .1736 .9848 -199.4986 552.608)" gradientUnits="userSpaceOnUse" x1="825.6381" x2="825.6381" xlink:href="#a" y1="1134.728" y2="357.7982"/><linearGradient id="f" gradientTransform="matrix(.9848 -.1736 .1736 .9848 -199.4986 552.608)" gradientUnits="userSpaceOnUse" x1="722.6586" x2="722.6586" xlink:href="#a" y1="647.5969" y2="433.5262"/><linearGradient id="g" gradientTransform="matrix(.9848 -.1736 .1736 .9848 -199.4986 552.608)" gradientUnits="userSpaceOnUse" x1="1370.4717" x2="1370.4717" xlink:href="#a" y1="646.7964" y2="433.1539"/><path d="m1820.7 1586-1506.5 265.7c-21 3.7-41.1-10.3-44.8-31.4l-265.7-1506.6c-3.7-21 10.3-41.1 31.4-44.8l1506.6-265.6c21-3.7 41.1 10.3 44.8 31.4l265.6 1506.6c3.7 20.9-10.4 41-31.4 44.7z" fill="url(#b)"/><path d="m1774.6 1520.3c-480.6 84.8-959.3 169.2-1439.6 253.9-84.6-480-169-958.7-253.8-1439.6 478.9-84.4 958.2-169 1439.6-253.8 84.3 478.5 168.9 957.9 253.8 1439.5z" fill="url(#c)"/><path d="m948.4 719.1c22.2.8 40.1 8.8 58 15.6-16.7 8.3-22.3 28.9-18.7 46.8 30.2 145.3 89.6 476.3 93.1 496.3 17.2-14.1 56.7-47.3 70.2-58.2 71.8-58.3 131.1-122.7 191.6-194.2 22.1-26.1 15.7-36.3 12.9-44.3 19.4.1 38.1 9.5 44 32.3 8.5 33 15.1 66.7 19.1 100.5 1.2 10.1-7.7 22.7-14.8 32.1-64.1 84.6-141.1 156-226.1 219.1-15 11.1-27.6 22.1-22.3 43.1.6 2.4.2 5.3-.5 7.8-4.9 17.6-117.9 70.7-117.9 70.7s-5-28.3-7-39.7c-33.1-191.3-96.8-550-119.1-675.7-4.3-24.6.5-53.5 37.5-52.2z" fill="url(#d)"/><path d="m554.3 1121c-4.3 32.1 20.5 42.1 41.1 53.7 79.2 44.3 231.7 103.6 316.4 135.6-6.4-36.4-64.6-355.8-86.7-498.1-8.3-53.1 6.7-76.1 77.1-90.5-17 8.2-15.4 33.9-13.9 42.4 40.7 230.9 79.9 453.2 120.6 684.2 2.2 12.5 7.5 42.2 7.5 42.2s-85.7-9.6-102.6-14.1c-16.4-4.3-29.7-9.3-35-29.9-2.5-9.7-19.8-18.5-32.1-22.3-100.3-30.8-196.1-71.2-285.6-126.5-18.8-11.6-30.1-24.6-32.3-47.1-2.2-22.7-7.8-45-11.5-67.5-5.2-32 3.3-46.9 37-62.1z" fill="url(#e)"/><path d="m805.8 763.7s-10.9 15.2-6.1 42.8c25.6 148.9 47.8 285.6 76.3 447.6-125.5-40.4-218.3-77.2-274-110.8-7.7-4.6-17.4-13.9-16.3-25.5 13.7-141.1 77.6-253.3 192.9-335.9 14.6-11 27.2-18.2 27.2-18.2z" fill="#0affff" opacity=".75"/><path d="m1095.7 1213.4s-52.9-291.9-83.4-433.1c-4.6-21.3 14.9-39.5 35.5-32.8.1.1.2.1.3.1 120.4 41 209.3 119.2 265.6 235.4 6.4 15.4 4.4 25.7-1.3 32.4-106 125-216.7 198-216.7 198z" fill="#0affff" opacity=".75"/><path d="m581.8 854.2c3.6 1.9 6 6.8 3.4 9.9-18.4 21.3-38.3 44.7-55.3 86.6s-12.2 43.8-19.3 56.2c-5.2 9-18.4 5.4-25.2 2.1-84.3-40.8-128.2-118.4-109.9-212 17.9-92 70.9-179.9 82-203.7 28.3-60.3 12.2-108.5-43.3-140.7-21.3-12.4-.1-.1-.1-.1-3.1-1.9-34-13.3-34-13.3s38.5-9 68.7.4c73.2 22.7 112.4 93.2 98.5 175.7-4.5 26.5-14.1 52.5-23.4 78-34.6 95.3-23.3 119.2 57.9 160.9z" fill="#0affff" opacity=".75"/><path d="m570.8 1074.4c-38.3-16-46.2-29-38.6-62 14.3-61.9 48-112.7 93.2-156.1 12.9-12.4 28.9-20.5 51.6-3.7-56.4 63.4-90.8 137.2-106.2 221.8z" fill="url(#f)"/><path d="m1315.9 942.2c-43.4-71.5-98.7-131.4-174.6-170.5 11.4-22.8 28.3-22.8 44.1-16.4 62.5 25.5 114.8 64.5 149.6 123.5 14 23.9 8.9 39.4-19.1 63.4z" fill="url(#g)"/><path d="m1228.1 740.3c-2.8 2.9-3.3 8.4.2 10.4 24.6 13.7 51.3 28.9 81.6 62.4 30.3 33.6 26.5 37 37.4 46.2 7.9 6.6 19.2-1.2 24.4-6.6 65.1-67.2 79.9-155 30.7-236.8-48.2-80.3-128.1-144.8-146.8-163.3-47.2-46.9-48.5-97.7-7.5-147 15.8-18.9.1-.1.1-.1 2.2-2.8 27.3-24.2 27.3-24.2s-39.2 4.8-64.5 23.9c-61 46.3-73.8 126-32.5 198.8 13.3 23.4 31.2 44.5 48.6 65.3 65.4 77.6 63 104 1 171z" fill="#0affff" opacity=".75"/><g fill="#fff" stroke="#e5e5e5" stroke-miterlimit="10"><path d="m2895 18.3c-54.9 99.9-101.3 203.8-145 309-44.3 106.8-88.9 213.4-132.1 320.6-29.7 73.6-56.3 148.5-87 221.7-6.6 15.8-23.7 28.1-37.8 39.7-41.8 34.5-85.4 66.8-135.4 89-19.9 8.8-40.6 16.3-61.4 22.8-5.2 1.6-13.4-.9-18.2-4.3-62-44.8-113-99.9-153.6-164.9-30.7-49.2-55.7-101.3-72.8-156.4-16-51.4-28.8-104.1-38.2-157.1-8.8-49.4-11.8-99.8-16.2-149.9-3.2-36-4.4-72.1-6.4-108.2-3.2-55.7-6.3-111.4-9.4-167-1.1-19.1-2-38.2-3.3-57.2-.1-2.2-1.9-4.2-3-6.3 0-10.4 0-20.9 0-31.3h269c20 15.2 20.8 19.9 6.1 40.8-2.9 4.2-7.3 7.5-10.1 11.7-6.3 9.5-16.1 19-17.2 29.3-4 36.9-5.3 74.2-6.9 111.3-2.4 54.3-5.8 108.6-6 163-.3 88.9.1 177.9 3.4 266.8 1.9 51.2 8.2 102.4 15.9 153 3 19.7 13 39.6 24.2 56.5 7.6 11.4 20.4 19.1 26.9 33.1 3.8 8.2 14.8 14.5 23.9 18.3 9.9 4.1 21.1 4.5 27.1-8.9 16-35.3 34.7-69.5 48.5-105.6 52.5-137.4 104.7-274.9 154.5-413.3 27.8-77.4 61.9-152.9 77.7-234.4 5.6-28.9 12-56.8-7.5-83.8-3.4-4.8-.4-16.2 2.8-23.2 2.7-5.9 10-9.8 15.2-14.5 90.8-.3 181.6-.3 272.3-.3z"/><path d="m5929.5 343.7c-5.2 25.2-11 50.3-15.5 75.6-6.9 38.7-12.7 77.6-19.5 116.4-7.9 45.2-16.3 90.4-24.5 135.6-11.4 62.8-22.8 125.5-34.1 188.3-4.3 24.1-10.4 48.2-11.9 72.5-1.2 19.2 3 38.8 5.6 58 3.1 22.4-1.6 30.6-24.2 32.1-23.4 1.6-46.9 1-70.4.1-13.9-.5-20.6-14.9-11.8-27.4 19.7-27.8 30-58.9 36-91.7 8.1-44.2 15.5-88.5 23.3-132.8 4.7-26.6 9.2-53.3 14.4-79.8 3.1-15.6-.8-20.3-16.7-21.7-17-1.6-28.9 5.4-41.1 16.5-42.7 38.8-86.6 76.4-129.8 114.7-31.7 28.1-63 56.6-94.5 84.9-5.3 4.8-10.7 9.9-16.8 13.3-7.1 4-13.1 4-19.5-4.4-44.8-58.6-90.3-116.6-135.7-174.8-12.6-16.2-27.2-31.1-37.8-48.5-9-14.9-20.5-15.8-34.2-13.1-14.2 2.8-21 12.7-23.4 26.7-9.1 52.3-18.4 104.5-27.9 156.7-7.6 41.3-11.8 82.7-9.5 124.7.2 3.1.4 6.2 1.1 9.2 6 25.1-2.9 37.4-28.8 38.3-19.3.6-38.6.7-57.9 0-22-.8-30.4-15.4-17.1-32 25.2-31.6 30.5-69.3 37-107.1 9.9-56.8 20.9-113.4 30.8-170.2 10.9-62.9 20.8-126 31.8-188.9 11.1-63.9 22.5-127.7 34.9-191.3 1.6-8.1 9.3-15.9 15.9-21.8 2.4-2.1 12.4-.1 15.1 3.2 36.1 44.6 71.4 89.9 107.1 134.8 38 47.8 76.3 95.3 114.4 143 12.8 16 25.3 32.2 38.1 48.5 129.3-106.8 257.9-213 387.6-320.2 3.6 6.4 6.5 11.7 9.5 17.1z"/><path d="m3251.6 1835.9c-27.8-7.2-55.6-14.7-83.5-21.5-40.2-9.8-77.7-25.5-109.6-51.9-20.5-16.9-32.2-39.8-31.8-67.2.1-4.4 3.7-10.4 7.5-13 25.1-17.4 50.9-34 76.2-51.2 13.3-9.1 13.2-9.5 30.5-6.2-1.2 33.2-7.4 66.4 7.1 98.7 8.6 19.1 21.9 34.5 39.9 42.4 43.9 19.1 89.4 26.7 135 4.2 35.8-17.6 54.5-50 61.8-86.4 3.2-15.9-6-36-13.9-52.1-45.3-92.8-91.6-185.1-138.1-277.4-16.8-33.3-35.2-65.8-52.4-98.9-7.1-13.6-5-25.5 7.4-36.3 57.4-50.1 122.6-85.6 197.8-98.4 52.3-8.9 106-10.7 156.3 12.7 34.7 16.1 60.4 42.4 76.5 76.9 3.1 6.7 1.3 18.9-3.1 25.3-12.3 17.8-30.8 28.2-53.9 36.6 0-12.7 0-22.3 0-32 .2-32.4-14.7-56.8-40.7-74.9-3.6-2.5-8.3-4.5-12.7-4.8-32.6-1.9-64.9-.8-94.8 14.7-13.5 7-28.5 12.4-39.8 22.1-28.6 24.3-35.9 65.9-18.8 102.1 30.4 64.3 60.6 128.7 92.7 192.1 30.7 60.7 62.9 120.6 96 179.9 13.6 24.4-.5 39.7-14.2 54-52.3 54.6-115.1 91.1-190.4 104.4-11.3 2-22.5 4.2-33.8 6.3-17.7-.2-35.5-.2-53.2-.2z"/><path d="m3739.6 1835.9c-12.7-12.3-14-21.2-.8-31.5 21.8-17.1 21.3-41.9 25.7-65 7.3-38.6 13.7-77.4 20.4-116.1 7.9-45.3 15.6-90.5 23.6-135.8 7.6-43.2 15.4-86.4 23-129.6 8-45.7 15.9-91.5 23.9-137.2 3.3-18.5 6.9-36.9 10.4-55.9-43.9-7.5-78.2 9.2-108.4 35.7-31.5 27.7-57.1 60.7-76.9 97.7-7.2 13.5-15.7 17.8-30.8 13.9-.2-1.8-1.2-4.4-.6-6.5 15.8-51 29.2-103 61.8-147.1 18-24.4 38.5-40.1 71.8-39.6 109.4 1.5 218.9 1.3 328.3.1 28.2-.3 45.5 11.5 54 36.3 6.9 20.1 13.4 41 15 62 2 26.1-2.6 52.7-1.9 79 .5 20.8-11.2 17.8-26.3 16.2 6.9-43.3-7.9-78.9-41.7-105-29-22.4-59.7-43.2-98.1-45-20.6 36.7-25 76.3-31.6 115.3-6.4 37.7-13.2 75.4-19.8 113.1-8 45.7-15.9 91.5-23.9 137.2-5.9 34.2-12.2 68.3-17.7 102.6-3.1 19.2-6.1 38.6-7.1 58-1.9 37.3-2.7 74.6-3.2 111.9-.2 11.7 1.9 23.5 2.9 35.3-57.3 0-114.6 0-172 0z"/><path d="m2313.1 1835.9c1.9-6.8 2.7-14.2 6-20.2 26-48 36.3-100.2 44.3-153.4 6.5-43.4 15.4-86.4 23.1-129.6 6.9-39.2 13.7-78.4 20.5-117.7 6.2-35.7 12.8-71.3 18.2-107.2 3.3-21.8 5.8-43.9 6.5-66 1.1-35.5.4-71.1.2-106.7 0-6.6-1.6-13.1-2.8-21.9h15c45.4 0 90.7-.1 136.1.2 7 0 14.5 1.1 21 3.5 11.1 4.1 14.8 18.3 6.3 25.4-19.7 16.4-24.5 38.8-28.5 62.2-8.8 51.3-18.1 102.5-27 153.8-7.8 44.8-15.2 89.6-23 134.4-6.6 38.2-13.5 76.4-20.1 114.6-6.9 39.2-13.8 78.4-20.5 117.7-2.4 14.1-4.7 28.3-6.1 42.5-1.1 10.1 4.4 14.7 14.8 15.5 52.3 3.6 102.5-2.6 143.8-37.9 28.2-24.1 54.7-50.3 79.8-77.6 20.7-22.5 37.6-48.6 57.7-71.8 4.9-5.6 15.7-6.1 23.8-9 1.4 1.6 2.9 3.2 4.3 4.9-6.6 16.2-12.8 32.5-20 48.4-16.8 36.7-32.8 73.8-51.5 109.5-13.6 26.1-30.8 50.5-46.8 75.3-2.9 4.5-7.9 7.5-11.9 11.2-121.3-.1-242.2-.1-363.2-.1z"/><path d="m2957.6 1835.9c-24-24.5-48.3-48.7-71.9-73.6-18.8-19.9-36.4-40.8-55-60.9-9.3-10.1-8.9-17.8 1.8-26.9 31.5-26.9 55.6-59.9 67.3-99.5 8.6-29.2 11.7-60 17.1-90.1 10.4-57.2 21-114.4 31-171.6 5.8-33.2 13.3-66.4 15-99.9 1.3-25-4.2-50.7-19.6-72.7-3.1-4.3-3.7-10.4-5.4-15.7 5.7-1.8 11.5-5.2 17.2-5.2 57.8-.4 115.7-.2 173.5-.2h21.9c-9 12.1-15.3 25.6-25.8 33.7-28.7 22.5-36.9 53.3-42.3 86.9-10.5 64.4-22.9 128.6-34 192.9-14 81-27.1 162.1-41.2 243.1-8.7 49.7-18.5 99.2-27.7 148.8-.7 3.5-.1 7.3-.1 10.9-7.3 0-14.6 0-21.8 0z"/><path d="m3198.9 1014.2c-12.9 2.8-25.9 7.7-39 8-41.1 1-82.3.9-123.5 0-10.7-.2-21.2-4.6-34.8-7.7 19.9-23.4 33-45.6 35.5-72.7.5-5.1 1.7-10.2 1.7-15.3.2-37.1 1.2-74.3-.4-111.3-.7-16.5-5.2-33.2-10.7-48.9-5-14.2-17-16.6-29.6-8.1-75.5 51.4-150.2 104.1-226.6 154.1-54.6 35.8-111.3 68.2-167.1 102-3.5 2.1-7.3 3.6-11.2 4.9-27.3 9.3-47.7-9-42.1-37.7 18.7-96 46.2-189.2 93.8-275.2 26.3-47.5 57.4-91.7 93.1-133 52.4-60.6 115.1-108.1 182.3-150.4 7.7-4.8 17.3-9.8 21-17.2 10.6-21.2-6.5-35.2-17.2-49.9-11-15-23.8-28.6-37.2-44.5 20.6-5.8 37.8-14.1 59.9-9.4 22.5 4.7 46.4 2.4 69.5 4.2 27.1 2.1 54.3 6.4 77.1 22 8.8 6 18.1 17.2 19.6 27.2 5.2 33.4 6.5 67.5 10.4 101.2 4.5 39.7 10.4 79.2 15.2 118.8 3.6 29.5 6.1 59.2 9.8 88.8 4.5 36.6 9.9 73 14.7 109.5 3.6 26.9 6.5 53.9 10.3 80.8 5.3 38 10.9 75.9 16.7 113.8 2.3 14.2 5.4 28.1 8.8 46zm-419.5-204.4c13-4 23.9-5.5 32.8-10.5 19.9-11.2 39.7-23.1 58.1-36.7 38.6-28.6 76.5-58.2 114.1-88.1 5.1-4 10.4-12 10.1-18-2.2-50.4-4.7-100.8-9.4-151.1-2-21.4-21.5-28.5-39.6-16.6-34.7 22.7-68.9 46-95.2 79.1-21.1 26.4-36.8 55-42.9 88.4-9.1 49.6-18.1 99.2-28 153.5z"/><path d="m3941.6 637.4h229.1c19.1-109 41.1-217.6 33.4-330.4 3.1-.2 7.1-.8 11.1-.9 43.3-.1 86.5-.5 129.8.4 6.5.1 14.3 5.3 18.7 10.4 2 2.4-1.1 12-4.6 15.7-22.8 23.6-22.4 54.8-27.9 83.7-8.4 44.1-15.5 88.5-23.2 132.7-8 45.8-16 91.5-23.9 137.3-6.5 37.2-12.6 74.5-19.2 111.7-8 45.2-14.3 90.9-25.3 135.3-7.2 29.1 6.5 52.2 13.8 81-10.6 2.7-21.1 7.4-31.6 7.6-44.3.9-88.5.4-138.1.4 24.1-53.6 40.8-106.6 48-162.8 7.2-56 19.9-111.4 30.4-167.9-77.2 0-153.6 0-229.4 0-12.2 66.7-24.3 132.9-36.3 199.1-3.4 18.6-7.6 37.1-9.2 55.9-.9 10.5 2 21.6 4.6 32.1 2.6 10.8 6.8 21.3 11 34.1-7.1 3.1-14.3 9-21.6 9.1-47.9.8-95.8.4-147.6.4 6.8-16.2 12.2-30.2 18.5-43.9 18.4-39.9 23.6-83.1 31.3-125.7 10.4-57.2 21.3-114.4 31-171.7 10.1-59.4 20.8-118.9 28-178.7 6.6-54.7 9.1-109.8 12.7-164.8.7-9.9-1.8-20-3-31.6 50.3 0 99.2-.4 148.1.3 13.1.2 20.9 17.7 11.3 25.8-27.2 22.9-24.8 55.7-30.7 85.5-8.6 43.6-15.4 87.5-23.1 131.2-5.2 29.4-10.6 58.5-16.1 88.7z"/><path d="m4853 343c-10.8 29.5-21.2 58.7-32.3 87.6-3.8 9.9-10.9 9.8-17.6 0-16.7-24.4-36.7-44.5-67.3-49.8-50.1-8.6-97-1.8-138.6 29.6-48 36.3-75.8 86.7-97.3 141.1-7.3 18.4-13.2 37.2-20.6 58h129.4c27.6 0 55.3.6 82.9-.2 28.3-.8 56.3-5.3 79.9-22.1 9.1-6.5 19-17 20.9-27.1 3-15.4 11.2-13.4 24.3-12.5-2.5 13.6-3.1 27.5-7.6 39.9-9.1 25.2-18.5 50.7-31.3 74.1-11.9 21.9-32.6 32.7-58.9 32.5-78.2-.5-156.4-.2-234.6-.2-5.7 0-11.3 0-17.3 0-9.6 50-4.5 97 24.1 138.8 25.5 37.3 64.5 57.1 105.2 73.9 26.2 10.8 53.6 11.1 80.7 8.7 10.7-.9 22.9-7.7 30.6-15.6 25.5-25.9 50.3-52.7 73.3-80.8 16.8-20.4 30.4-43.5 45.4-65.4 8.9-13 8.8-13 28.6-11.8-3.9 10.9-7 21.2-11.1 31-27.1 63.8-53.2 128-82.3 190.9-9.2 19.9-17.8 43.3-42.1 52.1-7.6 2.7-15.5 6-23.4 6.3-74.4 3.2-147-6-213.5-41.4-49.5-26.3-88.1-64.6-115.7-114.2-21.3-38.3-35.8-79-44-121.5-3.7-19.2-1.1-40.4 2.2-60 5.5-32.6 11.7-65.3 21.6-96.8 25.4-80.7 75.9-142.9 144.4-191.9 67.8-48.6 144.8-74.7 224.7-92.2 19.1-4.2 41.5 3.7 61.7 8.4 26.8 6.6 54 12.4 75.6 30.6z"/><path d="m3740 777.3c-26.6 56.3-51.3 111.7-78.8 165.7-13.1 25.7-31.3 48.9-48 72.6-2.7 3.8-9.5 6.6-14.4 6.6-117.8.4-235.6.3-357.1.3 8.5-19.9 15.4-38.6 24.3-56.3 16.5-33.2 19.5-69.5 26.2-104.9 8.3-44.1 15.7-88.4 23.5-132.7 6.8-38.2 13.7-76.4 20.3-114.6 6.1-35.2 12.3-70.4 17.7-105.7 3.1-20.3 6-40.7 7.1-61.1 1.9-36.8 2.7-73.6 3.2-110.4.2-11.6-2.1-23.3-3.5-36.9h66.8c27.6 0 55.3-.3 82.9.2 7.5.1 15.7 1.3 22.3 4.5 9.1 4.3 14.2 11.8 6.6 22.2-2.1 2.9-3.3 7-6 8.8-17.2 11.3-18.7 29.8-21.7 47.2-13.9 79.5-27.1 159.1-41.1 238.5-13.1 73.9-26.9 147.6-40.3 221.4-6.3 34.6-12.3 69.3-18.6 103.9-2.5 13.8 4.4 21.6 19.2 23 61.7 5.7 114.6-11.9 161.5-53.4 38.2-33.8 70.2-72.3 100.6-112.6 3.1-4.1 7.1-7.8 9.2-12.3 6.8-14.9 18.2-18.2 38.1-14z"/><path d="m4865.2 873.2c43.1-38.1 75.6-78.9 85.2-134.7 9.9-57.8 20.8-115.5 31-173.2 8.5-48.2 18.5-96.3 24.5-144.9 4.2-33.2 2.3-66.9-19.6-95.9-8.4-11-5.8-18.2 5.5-18.2 66.1-.3 132.3-.2 202.4-.2-4.1 7.5-6 13.1-9.6 17.2-12.6 14.4-25.6 28.4-38.9 42.2-15.8 16.3-12.6 38.1-16.6 57.6-8.1 39-13.9 78.4-20.7 117.6-8.8 50.8-17.8 101.5-26.6 152.3-6.5 37.2-12.7 74.5-19.3 111.7-8 45.2-16.4 90.3-24.4 135.5-4.4 24.6-8.3 49.3-12.6 74-1.6 9.3-18.3 13-26.6 4.8-19.1-19-37.3-38.9-55.8-58.5-18.9-19.9-38-39.7-56.5-60-8-8.6-14.6-18.4-21.4-27.3z"/><path d="m4760.5 1112.4c13.9 5.4 28.3 9.8 41.6 16.4 14.9 7.5 27-1.8 39.4-5.4 46.8-13.7 126.2 12.9 152.3 54.3 16.8 26.8 12.3 41-11 55.3-41.6 25.7-83.1 51.8-124.6 77.6-11.2 7-14.3 17.2-8.8 28.6 38.1 78.1 77.2 155.8 132.8 223.4 13.8 16.7 29.6 31.8 44.3 47.8 3 3.3 7.9 9.9 7.2 10.8-4 4.5-9.4 10.5-14.6 10.9-26.1 1.8-50.8-4.3-73.2-18.1-37.1-22.8-61.7-56.7-83-93.5-24.9-43.2-40.6-91.4-72-131-8-10-15.9-20.2-24.5-29.6-2.6-2.9-8.5-5.6-11.5-4.6-3.4 1.2-7 6.5-7.6 10.5-6.7 45.5-13.2 91.1-18.9 136.7-1.7 13.9-13.4 12.6-20.6 13.5-16.4 2.1-33.3 1.6-49.9.4-14.2-1-14.3-7.7-8.7-21.1 10.2-24.3 19.7-49.4 25-75.1 13.1-63.4 23.7-127.3 35.2-191.1 5.5-30.6 9.7-61.6 16.5-91.9 5.6-24.7 4.9-20.8 32.9-20.9.7-1.3 1.2-2.6 1.7-3.9zm28.3 54.1c-9.1 52.1-17.9 102.1-26.7 152.2 1.4 1.3 2.7 2.7 4.1 4 38.9-22.8 78.4-44.7 116.3-69.1 11.4-7.3 21.6-20.8 25.4-33.6 2-6.8-10.7-18-16.7-27.2-.5-.8-.3-2.4-1-2.8-12.3-7.9-23.9-19.9-37.2-22.4-20.6-3.9-42.4-1.1-64.2-1.1z"/><path d="m5231.2 1296.8c7.4-1.9 14-4.9 20.7-5 28.1-.5 56.3-.4 84.4-.2 19.4.1 20.8 4.6 15.9 22.8-10 36.8-18.1 74.1-26.3 111.3-4.1 18.9-4.9 38.7-10.4 57.2-6.4 21.3-25.8 30.5-45.6 30.2-69.2-1.2-136.7-10.2-188.2-63.7-46.1-47.9-58.2-104.2-38.9-167.6 10.8-35.7 26.5-68.8 52.6-95.8 30.8-32 70-48.8 112.3-58.9 44.7-10.6 89.3-10.4 133.3 4.8 24.7 8.5 24.9 8.2 15 30.8-4.6 10.6-9.4 21.1-14.1 31.7-9.8-5.2-19.4-10.6-29.4-15.4-44.3-21-110.8-7.1-146.2 39.5-25.8 33.8-35.6 72.6-40.6 113.5-1.2 10.1-3.2 20.5-2 30.4 5.7 46.7 38.7 68.2 78.7 82.5 8.1 2.9 16.6 4.8 25 7 17.1 4.6 29.8-3.8 32.9-20.9 2.7-15 8.2-29.9 8.4-44.9.2-13.3-3.3-27.5-8.7-39.7-7.3-16.3-17.8-31-28.8-49.6z"/><path d="m4262.9 1317.2c45.4-46.4 88-91.3 132.2-134.5 20.5-20 44.2-36.7 66.4-54.8 21.1-17.2 50.2-19.1 69.5 8.9 28.7 41.6 56.9 83.5 85.2 125.3 8.3 12.3 18.5 23.9 23.5 37.5 3.5 9.6 3.8 25.6-1.9 32.4-19.4 23.3-41.4 44.6-63.9 65.1-27 24.6-54.9 48.2-83.5 70.9-19 15.1-39.8 28.2-60.2 41.5-3.2 2.1-10.5 2.5-13 .3-17.8-16-37.2-31-51.5-49.8-35.3-46.3-68.1-94.3-102.8-142.8zm95.7 3c2.6 6 5.5 19.1 13 28.5 18 22.5 38.6 42.9 57.4 64.8 7.4 8.7 16.1 11.4 26 9.2 9.7-2.2 20.7-4.4 28.1-10.3 25.9-21 51.1-43.2 75.3-66.1 4.8-4.5 7.1-15.3 5.6-22.2-8.2-38.5-26.7-71.3-56.2-98.1-30-27.3-55.8-29.4-87-3.7-13.1 10.8-24.5 23.7-37.9 34.2-18.9 14.7-22.7 35.1-24.3 63.7z"/><path d="m4123.8 1519.9c3.9-25 6.6-48.3 11.6-71.1 1.2-5.3 9.3-11.4 15.3-12.8 19.3-4.4 39.1-7.4 58.8-9.7 14.5-1.6 24.5 11.1 21 25.4-4.9 19.8-9.9 39.5-15.9 58.9-1.2 3.9-7.4 8.8-11.5 8.9-25.5.8-51 .4-79.3.4z"/></g></svg>