<?xml version="1.0" encoding="utf-8"?>
<!-- Generator: Adobe Illustrator 23.0.1, SVG Export Plug-In . SVG Version: 6.00 Build 0)  -->
<svg version="1.1" id="Layer_1" xmlns="http://www.w3.org/2000/svg" xmlns:xlink="http://www.w3.org/1999/xlink" x="0px" y="0px"
	 viewBox="0 0 5961 1854.3" style="enable-background:new 0 0 5961 1854.3;" xml:space="preserve">
<style type="text/css">
	.st0{fill:url(#SVGID_1_);}
	.st1{fill:url(#SVGID_2_);}
	.st2{fill:url(#SVGID_3_);}
	.st3{fill:url(#SVGID_4_);}
	.st4{opacity:0.75;fill:#0AFFFF;enable-background:new    ;}
	.st5{fill:url(#SVGID_5_);}
	.st6{fill:url(#SVGID_6_);}
	.st7{fill:#FFFFFF;stroke:#E5E5E5;stroke-miterlimit:10;}
</style>
<linearGradient id="SVGID_1_" gradientUnits="userSpaceOnUse" x1="1045.2516" y1="1368.5286" x2="1045.2516" y2="-238.7396" gradientTransform="matrix(0.9848 -0.1736 0.1736 0.9848 -199.4986 552.608)">
	<stop  offset="0" style="stop-color:#00F6FE"/>
	<stop  offset="1" style="stop-color:#00FED6"/>
</linearGradient>
<path class="st0" d="M1820.7,1586L314.2,1851.7c-21,3.7-41.1-10.3-44.8-31.4L3.7,313.7c-3.7-21,10.3-41.1,31.4-44.8L1541.7,3.3
	c21-3.7,41.1,10.3,44.8,31.4l265.6,1506.6C1855.8,1562.2,1841.7,1582.3,1820.7,1586z"/>
<linearGradient id="SVGID_2_" gradientUnits="userSpaceOnUse" x1="1045.2275" y1="-166.0413" x2="1045.2275" y2="1295.8204" gradientTransform="matrix(0.9848 -0.1736 0.1736 0.9848 -199.4986 552.608)">
	<stop  offset="0" style="stop-color:#0A1021"/>
	<stop  offset="1" style="stop-color:#262C4C"/>
</linearGradient>
<path class="st1" d="M1774.6,1520.3C1294,1605.1,815.3,1689.5,335,1774.2C250.4,1294.2,166,815.5,81.2,334.6
	c478.9-84.4,958.2-169,1439.6-253.8C1605.1,559.3,1689.7,1038.7,1774.6,1520.3z"/>
<linearGradient id="SVGID_3_" gradientUnits="userSpaceOnUse" x1="1276.4486" y1="1134.6553" x2="1276.4486" y2="361.9432" gradientTransform="matrix(0.9848 -0.1736 0.1736 0.9848 -199.4986 552.608)">
	<stop  offset="0" style="stop-color:#00F6FE"/>
	<stop  offset="1" style="stop-color:#00FED6"/>
</linearGradient>
<path class="st2" d="M948.4,719.1c22.2,0.8,40.1,8.8,58,15.6c-16.7,8.3-22.3,28.9-18.7,46.8c30.2,145.3,89.6,476.3,93.1,496.3
	c17.2-14.1,56.7-47.3,70.2-58.2c71.8-58.3,131.1-122.7,191.6-194.2c22.1-26.1,15.7-36.3,12.9-44.3c19.4,0.1,38.1,9.5,44,32.3
	c8.5,33,15.1,66.7,19.1,100.5c1.2,10.1-7.7,22.7-14.8,32.1c-64.1,84.6-141.1,156-226.1,219.1c-15,11.1-27.6,22.1-22.3,43.1
	c0.6,2.4,0.2,5.3-0.5,7.8c-4.9,17.6-117.9,70.7-117.9,70.7s-5-28.3-7-39.7c-33.1-191.3-96.8-550-119.1-675.7
	C906.6,746.7,911.4,717.8,948.4,719.1z"/>
<linearGradient id="SVGID_4_" gradientUnits="userSpaceOnUse" x1="825.6381" y1="1134.728" x2="825.6381" y2="357.7982" gradientTransform="matrix(0.9848 -0.1736 0.1736 0.9848 -199.4986 552.608)">
	<stop  offset="0" style="stop-color:#00F6FE"/>
	<stop  offset="1" style="stop-color:#00FED6"/>
</linearGradient>
<path class="st3" d="M554.3,1121c-4.3,32.1,20.5,42.1,41.1,53.7c79.2,44.3,231.7,103.6,316.4,135.6c-6.4-36.4-64.6-355.8-86.7-498.1
	c-8.3-53.1,6.7-76.1,77.1-90.5c-17,8.2-15.4,33.9-13.9,42.4c40.7,230.9,79.9,453.2,120.6,684.2c2.2,12.5,7.5,42.2,7.5,42.2
	s-85.7-9.6-102.6-14.1c-16.4-4.3-29.7-9.3-35-29.9c-2.5-9.7-19.8-18.5-32.1-22.3c-100.3-30.8-196.1-71.2-285.6-126.5
	c-18.8-11.6-30.1-24.6-32.3-47.1c-2.2-22.7-7.8-45-11.5-67.5C512.1,1151.1,520.6,1136.2,554.3,1121z"/>
<path class="st4" d="M805.8,763.7c0,0-10.9,15.2-6.1,42.8c25.6,148.9,47.8,285.6,76.3,447.6c-125.5-40.4-218.3-77.2-274-110.8
	c-7.7-4.6-17.4-13.9-16.3-25.5c13.7-141.1,77.6-253.3,192.9-335.9C793.2,770.9,805.8,763.7,805.8,763.7z"/>
<path class="st4" d="M1095.7,1213.4c0,0-52.9-291.9-83.4-433.1c-4.6-21.3,14.9-39.5,35.5-32.8c0.1,0.1,0.2,0.1,0.3,0.1
	c120.4,41,209.3,119.2,265.6,235.4c6.4,15.4,4.4,25.7-1.3,32.4C1206.4,1140.4,1095.7,1213.4,1095.7,1213.4z"/>
<path class="st4" d="M581.8,854.2c3.6,1.9,6,6.8,3.4,9.9c-18.4,21.3-38.3,44.7-55.3,86.6c-17,41.9-12.2,43.8-19.3,56.2
	c-5.2,9-18.4,5.4-25.2,2.1C401.1,968.2,357.2,890.6,375.5,797c17.9-92,70.9-179.9,82-203.7c28.3-60.3,12.2-108.5-43.3-140.7
	c-21.3-12.4-0.1-0.1-0.1-0.1c-3.1-1.9-34-13.3-34-13.3s38.5-9,68.7,0.4c73.2,22.7,112.4,93.2,98.5,175.7
	c-4.5,26.5-14.1,52.5-23.4,78C489.3,788.6,500.6,812.5,581.8,854.2z"/>
<linearGradient id="SVGID_5_" gradientUnits="userSpaceOnUse" x1="722.6586" y1="647.5969" x2="722.6586" y2="433.5262" gradientTransform="matrix(0.9848 -0.1736 0.1736 0.9848 -199.4986 552.608)">
	<stop  offset="0" style="stop-color:#00F6FE"/>
	<stop  offset="1" style="stop-color:#00FED6"/>
</linearGradient>
<path class="st5" d="M570.8,1074.4c-38.3-16-46.2-29-38.6-62c14.3-61.9,48-112.7,93.2-156.1c12.9-12.4,28.9-20.5,51.6-3.7
	C620.6,916,586.2,989.8,570.8,1074.4z"/>
<linearGradient id="SVGID_6_" gradientUnits="userSpaceOnUse" x1="1370.4717" y1="646.7964" x2="1370.4717" y2="433.1539" gradientTransform="matrix(0.9848 -0.1736 0.1736 0.9848 -199.4986 552.608)">
	<stop  offset="0" style="stop-color:#00F6FE"/>
	<stop  offset="1" style="stop-color:#00FED6"/>
</linearGradient>
<path class="st6" d="M1315.9,942.2c-43.4-71.5-98.7-131.4-174.6-170.5c11.4-22.8,28.3-22.8,44.1-16.4
	c62.5,25.5,114.8,64.5,149.6,123.5C1349,902.7,1343.9,918.2,1315.9,942.2z"/>
<path class="st4" d="M1228.1,740.3c-2.8,2.9-3.3,8.4,0.2,10.4c24.6,13.7,51.3,28.9,81.6,62.4c30.3,33.6,26.5,37,37.4,46.2
	c7.9,6.6,19.2-1.2,24.4-6.6c65.1-67.2,79.9-155,30.7-236.8c-48.2-80.3-128.1-144.8-146.8-163.3c-47.2-46.9-48.5-97.7-7.5-147
	c15.8-18.9,0.1-0.1,0.1-0.1c2.2-2.8,27.3-24.2,27.3-24.2s-39.2,4.8-64.5,23.9c-61,46.3-73.8,126-32.5,198.8
	c13.3,23.4,31.2,44.5,48.6,65.3C1292.5,646.9,1290.1,673.3,1228.1,740.3z"/>
<g>
	<path class="st7" d="M2895,18.3c-54.9,99.9-101.3,203.8-145,309c-44.3,106.8-88.9,213.4-132.1,320.6
		c-29.7,73.6-56.3,148.5-87,221.7c-6.6,15.8-23.7,28.1-37.8,39.7c-41.8,34.5-85.4,66.8-135.4,89c-19.9,8.8-40.6,16.3-61.4,22.8
		c-5.2,1.6-13.4-0.9-18.2-4.3c-62-44.8-113-99.9-153.6-164.9c-30.7-49.2-55.7-101.3-72.8-156.4c-16-51.4-28.8-104.1-38.2-157.1
		c-8.8-49.4-11.8-99.8-16.2-149.9c-3.2-36-4.4-72.1-6.4-108.2c-3.2-55.7-6.3-111.4-9.4-167c-1.1-19.1-2-38.2-3.3-57.2
		c-0.1-2.2-1.9-4.2-3-6.3c0-10.4,0-20.9,0-31.3c89.7,0,179.4,0,269,0c20,15.2,20.8,19.9,6.1,40.8c-2.9,4.2-7.3,7.5-10.1,11.7
		c-6.3,9.5-16.1,19-17.2,29.3c-4,36.9-5.3,74.2-6.9,111.3c-2.4,54.3-5.8,108.6-6,163c-0.3,88.9,0.1,177.9,3.4,266.8
		c1.9,51.2,8.2,102.4,15.9,153c3,19.7,13,39.6,24.2,56.5c7.6,11.4,20.4,19.1,26.9,33.1c3.8,8.2,14.8,14.5,23.9,18.3
		c9.9,4.1,21.1,4.5,27.1-8.9c16-35.3,34.7-69.5,48.5-105.6c52.5-137.4,104.7-274.9,154.5-413.3c27.8-77.4,61.9-152.9,77.7-234.4
		c5.6-28.9,12-56.8-7.5-83.8c-3.4-4.8-0.4-16.2,2.8-23.2c2.7-5.9,10-9.8,15.2-14.5C2713.5,18.3,2804.3,18.3,2895,18.3z"/>
	<path class="st7" d="M5929.5,343.7c-5.2,25.2-11,50.3-15.5,75.6c-6.9,38.7-12.7,77.6-19.5,116.4c-7.9,45.2-16.3,90.4-24.5,135.6
		c-11.4,62.8-22.8,125.5-34.1,188.3c-4.3,24.1-10.4,48.2-11.9,72.5c-1.2,19.2,3,38.8,5.6,58c3.1,22.4-1.6,30.6-24.2,32.1
		c-23.4,1.6-46.9,1-70.4,0.1c-13.9-0.5-20.6-14.9-11.8-27.4c19.7-27.8,30-58.9,36-91.7c8.1-44.2,15.5-88.5,23.3-132.8
		c4.7-26.6,9.2-53.3,14.4-79.8c3.1-15.6-0.8-20.3-16.7-21.7c-17-1.6-28.9,5.4-41.1,16.5c-42.7,38.8-86.6,76.4-129.8,114.7
		c-31.7,28.1-63,56.6-94.5,84.9c-5.3,4.8-10.7,9.9-16.8,13.3c-7.1,4-13.1,4-19.5-4.4c-44.8-58.6-90.3-116.6-135.7-174.8
		c-12.6-16.2-27.2-31.1-37.8-48.5c-9-14.9-20.5-15.8-34.2-13.1c-14.2,2.8-21,12.7-23.4,26.7c-9.1,52.3-18.4,104.5-27.9,156.7
		c-7.6,41.3-11.8,82.7-9.5,124.7c0.2,3.1,0.4,6.2,1.1,9.2c6,25.1-2.9,37.4-28.8,38.3c-19.3,0.6-38.6,0.7-57.9,0
		c-22-0.8-30.4-15.4-17.1-32c25.2-31.6,30.5-69.3,37-107.1c9.9-56.8,20.9-113.4,30.8-170.2c10.9-62.9,20.8-126,31.8-188.9
		c11.1-63.9,22.5-127.7,34.9-191.3c1.6-8.1,9.3-15.9,15.9-21.8c2.4-2.1,12.4-0.1,15.1,3.2c36.1,44.6,71.4,89.9,107.1,134.8
		c38,47.8,76.3,95.3,114.4,143c12.8,16,25.3,32.2,38.1,48.5c129.3-106.8,257.9-213,387.6-320.2c3.6,6.4,6.5,11.7,9.5,17.1
		C5929.5,333.3,5929.5,338.5,5929.5,343.7z"/>
	<path class="st7" d="M3251.6,1835.9c-27.8-7.2-55.6-14.7-83.5-21.5c-40.2-9.8-77.7-25.5-109.6-51.9c-20.5-16.9-32.2-39.8-31.8-67.2
		c0.1-4.4,3.7-10.4,7.5-13c25.1-17.4,50.9-34,76.2-51.2c13.3-9.1,13.2-9.5,30.5-6.2c-1.2,33.2-7.4,66.4,7.1,98.7
		c8.6,19.1,21.9,34.5,39.9,42.4c43.9,19.1,89.4,26.7,135,4.2c35.8-17.6,54.5-50,61.8-86.4c3.2-15.9-6-36-13.9-52.1
		c-45.3-92.8-91.6-185.1-138.1-277.4c-16.8-33.3-35.2-65.8-52.4-98.9c-7.1-13.6-5-25.5,7.4-36.3c57.4-50.1,122.6-85.6,197.8-98.4
		c52.3-8.9,106-10.7,156.3,12.7c34.7,16.1,60.4,42.4,76.5,76.9c3.1,6.7,1.3,18.9-3.1,25.3c-12.3,17.8-30.8,28.2-53.9,36.6
		c0-12.7,0-22.3,0-32c0.2-32.4-14.7-56.8-40.7-74.9c-3.6-2.5-8.3-4.5-12.7-4.8c-32.6-1.9-64.9-0.8-94.8,14.7
		c-13.5,7-28.5,12.4-39.8,22.1c-28.6,24.3-35.9,65.9-18.8,102.1c30.4,64.3,60.6,128.7,92.7,192.1c30.7,60.7,62.9,120.6,96,179.9
		c13.6,24.4-0.5,39.7-14.2,54c-52.3,54.6-115.1,91.1-190.4,104.4c-11.3,2-22.5,4.2-33.8,6.3
		C3287.1,1835.9,3269.3,1835.9,3251.6,1835.9z"/>
	<path class="st7" d="M3739.6,1835.9c-12.7-12.3-14-21.2-0.8-31.5c21.8-17.1,21.3-41.9,25.7-65c7.3-38.6,13.7-77.4,20.4-116.1
		c7.9-45.3,15.6-90.5,23.6-135.8c7.6-43.2,15.4-86.4,23-129.6c8-45.7,15.9-91.5,23.9-137.2c3.3-18.5,6.9-36.9,10.4-55.9
		c-43.9-7.5-78.2,9.2-108.4,35.7c-31.5,27.7-57.1,60.7-76.9,97.7c-7.2,13.5-15.7,17.8-30.8,13.9c-0.2-1.8-1.2-4.4-0.6-6.5
		c15.8-51,29.2-103,61.8-147.1c18-24.4,38.5-40.1,71.8-39.6c109.4,1.5,218.9,1.3,328.3,0.1c28.2-0.3,45.5,11.5,54,36.3
		c6.9,20.1,13.4,41,15,62c2,26.1-2.6,52.7-1.9,79c0.5,20.8-11.2,17.8-26.3,16.2c6.9-43.3-7.9-78.9-41.7-105
		c-29-22.4-59.7-43.2-98.1-45c-20.6,36.7-25,76.3-31.6,115.3c-6.4,37.7-13.2,75.4-19.8,113.1c-8,45.7-15.9,91.5-23.9,137.2
		c-5.9,34.2-12.2,68.3-17.7,102.6c-3.1,19.2-6.1,38.6-7.1,58c-1.9,37.3-2.7,74.6-3.2,111.9c-0.2,11.7,1.9,23.5,2.9,35.3
		C3854.3,1835.9,3797,1835.9,3739.6,1835.9z"/>
	<path class="st7" d="M2313.1,1835.9c1.9-6.8,2.7-14.2,6-20.2c26-48,36.3-100.2,44.3-153.4c6.5-43.4,15.4-86.4,23.1-129.6
		c6.9-39.2,13.7-78.4,20.5-117.7c6.2-35.7,12.8-71.3,18.2-107.2c3.3-21.8,5.8-43.9,6.5-66c1.1-35.5,0.4-71.1,0.2-106.7
		c0-6.6-1.6-13.1-2.8-21.9c5.2,0,10.1,0,15,0c45.4,0,90.7-0.1,136.1,0.2c7,0,14.5,1.1,21,3.5c11.1,4.1,14.8,18.3,6.3,25.4
		c-19.7,16.4-24.5,38.8-28.5,62.2c-8.8,51.3-18.1,102.5-27,153.8c-7.8,44.8-15.2,89.6-23,134.4c-6.6,38.2-13.5,76.4-20.1,114.6
		c-6.9,39.2-13.8,78.4-20.5,117.7c-2.4,14.1-4.7,28.3-6.1,42.5c-1.1,10.1,4.4,14.7,14.8,15.5c52.3,3.6,102.5-2.6,143.8-37.9
		c28.2-24.1,54.7-50.3,79.8-77.6c20.7-22.5,37.6-48.6,57.7-71.8c4.9-5.6,15.7-6.1,23.8-9c1.4,1.6,2.9,3.2,4.3,4.9
		c-6.6,16.2-12.8,32.5-20,48.4c-16.8,36.7-32.8,73.8-51.5,109.5c-13.6,26.1-30.8,50.5-46.8,75.3c-2.9,4.5-7.9,7.5-11.9,11.2
		C2555,1835.9,2434.1,1835.9,2313.1,1835.9z"/>
	<path class="st7" d="M2957.6,1835.9c-24-24.5-48.3-48.7-71.9-73.6c-18.8-19.9-36.4-40.8-55-60.9c-9.3-10.1-8.9-17.8,1.8-26.9
		c31.5-26.9,55.6-59.9,67.3-99.5c8.6-29.2,11.7-60,17.1-90.1c10.4-57.2,21-114.4,31-171.6c5.8-33.2,13.3-66.4,15-99.9
		c1.3-25-4.2-50.7-19.6-72.7c-3.1-4.3-3.7-10.4-5.4-15.7c5.7-1.8,11.5-5.2,17.2-5.2c57.8-0.4,115.7-0.2,173.5-0.2
		c6.2,0,12.3,0,21.9,0c-9,12.1-15.3,25.6-25.8,33.7c-28.7,22.5-36.9,53.3-42.3,86.9c-10.5,64.4-22.9,128.6-34,192.9
		c-14,81-27.1,162.1-41.2,243.1c-8.7,49.7-18.5,99.2-27.7,148.8c-0.7,3.5-0.1,7.3-0.1,10.9
		C2972.1,1835.9,2964.8,1835.9,2957.6,1835.9z"/>
	<path class="st7" d="M3198.9,1014.2c-12.9,2.8-25.9,7.7-39,8c-41.1,1-82.3,0.9-123.5,0c-10.7-0.2-21.2-4.6-34.8-7.7
		c19.9-23.4,33-45.6,35.5-72.7c0.5-5.1,1.7-10.2,1.7-15.3c0.2-37.1,1.2-74.3-0.4-111.3c-0.7-16.5-5.2-33.2-10.7-48.9
		c-5-14.2-17-16.6-29.6-8.1c-75.5,51.4-150.2,104.1-226.6,154.1c-54.6,35.8-111.3,68.2-167.1,102c-3.5,2.1-7.3,3.6-11.2,4.9
		c-27.3,9.3-47.7-9-42.1-37.7c18.7-96,46.2-189.2,93.8-275.2c26.3-47.5,57.4-91.7,93.1-133c52.4-60.6,115.1-108.1,182.3-150.4
		c7.7-4.8,17.3-9.8,21-17.2c10.6-21.2-6.5-35.2-17.2-49.9c-11-15-23.8-28.6-37.2-44.5c20.6-5.8,37.8-14.1,59.9-9.4
		c22.5,4.7,46.4,2.4,69.5,4.2c27.1,2.1,54.3,6.4,77.1,22c8.8,6,18.1,17.2,19.6,27.2c5.2,33.4,6.5,67.5,10.4,101.2
		c4.5,39.7,10.4,79.2,15.2,118.8c3.6,29.5,6.1,59.2,9.8,88.8c4.5,36.6,9.9,73,14.7,109.5c3.6,26.9,6.5,53.9,10.3,80.8
		c5.3,38,10.9,75.9,16.7,113.8C3192.4,982.4,3195.5,996.3,3198.9,1014.2z M2779.4,809.8c13-4,23.9-5.5,32.8-10.5
		c19.9-11.2,39.7-23.1,58.1-36.7c38.6-28.6,76.5-58.2,114.1-88.1c5.1-4,10.4-12,10.1-18c-2.2-50.4-4.7-100.8-9.4-151.1
		c-2-21.4-21.5-28.5-39.6-16.6c-34.7,22.7-68.9,46-95.2,79.1c-21.1,26.4-36.8,55-42.9,88.4C2798.3,705.9,2789.3,755.5,2779.4,809.8z
		"/>
	<path class="st7" d="M3941.6,637.4c76.3,0,151.9,0,229.1,0c19.1-109,41.1-217.6,33.4-330.4c3.1-0.2,7.1-0.8,11.1-0.9
		c43.3-0.1,86.5-0.5,129.8,0.4c6.5,0.1,14.3,5.3,18.7,10.4c2,2.4-1.1,12-4.6,15.7c-22.8,23.6-22.4,54.8-27.9,83.7
		c-8.4,44.1-15.5,88.5-23.2,132.7c-8,45.8-16,91.5-23.9,137.3c-6.5,37.2-12.6,74.5-19.2,111.7c-8,45.2-14.3,90.9-25.3,135.3
		c-7.2,29.1,6.5,52.2,13.8,81c-10.6,2.7-21.1,7.4-31.6,7.6c-44.3,0.9-88.5,0.4-138.1,0.4c24.1-53.6,40.8-106.6,48-162.8
		c7.2-56,19.9-111.4,30.4-167.9c-77.2,0-153.6,0-229.4,0c-12.2,66.7-24.3,132.9-36.3,199.1c-3.4,18.6-7.6,37.1-9.2,55.9
		c-0.9,10.5,2,21.6,4.6,32.1c2.6,10.8,6.8,21.3,11,34.1c-7.1,3.1-14.3,9-21.6,9.1c-47.9,0.8-95.8,0.4-147.6,0.4
		c6.8-16.2,12.2-30.2,18.5-43.9c18.4-39.9,23.6-83.1,31.3-125.7c10.4-57.2,21.3-114.4,31-171.7c10.1-59.4,20.8-118.9,28-178.7
		c6.6-54.7,9.1-109.8,12.7-164.8c0.7-9.9-1.8-20-3-31.6c50.3,0,99.2-0.4,148.1,0.3c13.1,0.2,20.9,17.7,11.3,25.8
		c-27.2,22.9-24.8,55.7-30.7,85.5c-8.6,43.6-15.4,87.5-23.1,131.2C3952.5,578.1,3947.1,607.2,3941.6,637.4z"/>
	<path class="st7" d="M4853,343c-10.8,29.5-21.2,58.7-32.3,87.6c-3.8,9.9-10.9,9.8-17.6,0c-16.7-24.4-36.7-44.5-67.3-49.8
		c-50.1-8.6-97-1.8-138.6,29.6c-48,36.3-75.8,86.7-97.3,141.1c-7.3,18.4-13.2,37.2-20.6,58c45.3,0,87.3,0,129.4,0
		c27.6,0,55.3,0.6,82.9-0.2c28.3-0.8,56.3-5.3,79.9-22.1c9.1-6.5,19-17,20.9-27.1c3-15.4,11.2-13.4,24.3-12.5
		c-2.5,13.6-3.1,27.5-7.6,39.9c-9.1,25.2-18.5,50.7-31.3,74.1c-11.9,21.9-32.6,32.7-58.9,32.5c-78.2-0.5-156.4-0.2-234.6-0.2
		c-5.7,0-11.3,0-17.3,0c-9.6,50-4.5,97,24.1,138.8c25.5,37.3,64.5,57.1,105.2,73.9c26.2,10.8,53.6,11.1,80.7,8.7
		c10.7-0.9,22.9-7.7,30.6-15.6c25.5-25.9,50.3-52.7,73.3-80.8c16.8-20.4,30.4-43.5,45.4-65.4c8.9-13,8.8-13,28.6-11.8
		c-3.9,10.9-7,21.2-11.1,31c-27.1,63.8-53.2,128-82.3,190.9c-9.2,19.9-17.8,43.3-42.1,52.1c-7.6,2.7-15.5,6-23.4,6.3
		c-74.4,3.2-147-6-213.5-41.4c-49.5-26.3-88.1-64.6-115.7-114.2c-21.3-38.3-35.8-79-44-121.5c-3.7-19.2-1.1-40.4,2.2-60
		c5.5-32.6,11.7-65.3,21.6-96.8c25.4-80.7,75.9-142.9,144.4-191.9c67.8-48.6,144.8-74.7,224.7-92.2c19.1-4.2,41.5,3.7,61.7,8.4
		C4804.2,319,4831.4,324.8,4853,343z"/>
	<path class="st7" d="M3740,777.3c-26.6,56.3-51.3,111.7-78.8,165.7c-13.1,25.7-31.3,48.9-48,72.6c-2.7,3.8-9.5,6.6-14.4,6.6
		c-117.8,0.4-235.6,0.3-357.1,0.3c8.5-19.9,15.4-38.6,24.3-56.3c16.5-33.2,19.5-69.5,26.2-104.9c8.3-44.1,15.7-88.4,23.5-132.7
		c6.8-38.2,13.7-76.4,20.3-114.6c6.1-35.2,12.3-70.4,17.7-105.7c3.1-20.3,6-40.7,7.1-61.1c1.9-36.8,2.7-73.6,3.2-110.4
		c0.2-11.6-2.1-23.3-3.5-36.9c23.3,0,45.1,0,66.8,0c27.6,0,55.3-0.3,82.9,0.2c7.5,0.1,15.7,1.3,22.3,4.5c9.1,4.3,14.2,11.8,6.6,22.2
		c-2.1,2.9-3.3,7-6,8.8c-17.2,11.3-18.7,29.8-21.7,47.2c-13.9,79.5-27.1,159.1-41.1,238.5c-13.1,73.9-26.9,147.6-40.3,221.4
		c-6.3,34.6-12.3,69.3-18.6,103.9c-2.5,13.8,4.4,21.6,19.2,23c61.7,5.7,114.6-11.9,161.5-53.4c38.2-33.8,70.2-72.3,100.6-112.6
		c3.1-4.1,7.1-7.8,9.2-12.3C3708.7,776.4,3720.1,773.1,3740,777.3z"/>
	<path class="st7" d="M4865.2,873.2c43.1-38.1,75.6-78.9,85.2-134.7c9.9-57.8,20.8-115.5,31-173.2c8.5-48.2,18.5-96.3,24.5-144.9
		c4.2-33.2,2.3-66.9-19.6-95.9c-8.4-11-5.8-18.2,5.5-18.2c66.1-0.3,132.3-0.2,202.4-0.2c-4.1,7.5-6,13.1-9.6,17.2
		c-12.6,14.4-25.6,28.4-38.9,42.2c-15.8,16.3-12.6,38.1-16.6,57.6c-8.1,39-13.9,78.4-20.7,117.6c-8.8,50.8-17.8,101.5-26.6,152.3
		c-6.5,37.2-12.7,74.5-19.3,111.7c-8,45.2-16.4,90.3-24.4,135.5c-4.4,24.6-8.3,49.3-12.6,74c-1.6,9.3-18.3,13-26.6,4.8
		c-19.1-19-37.3-38.9-55.8-58.5c-18.9-19.9-38-39.7-56.5-60C4878.6,891.9,4872,882.1,4865.2,873.2z"/>
	<path class="st7" d="M4760.5,1112.4c13.9,5.4,28.3,9.8,41.6,16.4c14.9,7.5,27-1.8,39.4-5.4c46.8-13.7,126.2,12.9,152.3,54.3
		c16.8,26.8,12.3,41-11,55.3c-41.6,25.7-83.1,51.8-124.6,77.6c-11.2,7-14.3,17.2-8.8,28.6c38.1,78.1,77.2,155.8,132.8,223.4
		c13.8,16.7,29.6,31.8,44.3,47.8c3,3.3,7.9,9.9,7.2,10.8c-4,4.5-9.4,10.5-14.6,10.9c-26.1,1.8-50.8-4.3-73.2-18.1
		c-37.1-22.8-61.7-56.7-83-93.5c-24.9-43.2-40.6-91.4-72-131c-8-10-15.9-20.2-24.5-29.6c-2.6-2.9-8.5-5.6-11.5-4.6
		c-3.4,1.2-7,6.5-7.6,10.5c-6.7,45.5-13.2,91.1-18.9,136.7c-1.7,13.9-13.4,12.6-20.6,13.5c-16.4,2.1-33.3,1.6-49.9,0.4
		c-14.2-1-14.3-7.7-8.7-21.1c10.2-24.3,19.7-49.4,25-75.1c13.1-63.4,23.7-127.3,35.2-191.1c5.5-30.6,9.7-61.6,16.5-91.9
		c5.6-24.7,4.9-20.8,32.9-20.9C4759.5,1115,4760,1113.7,4760.5,1112.4z M4788.8,1166.5c-9.1,52.1-17.9,102.1-26.7,152.2
		c1.4,1.3,2.7,2.7,4.1,4c38.9-22.8,78.4-44.7,116.3-69.1c11.4-7.3,21.6-20.8,25.4-33.6c2-6.8-10.7-18-16.7-27.2
		c-0.5-0.8-0.3-2.4-1-2.8c-12.3-7.9-23.9-19.9-37.2-22.4C4832.4,1163.7,4810.6,1166.5,4788.8,1166.5z"/>
	<path class="st7" d="M5231.2,1296.8c7.4-1.9,14-4.9,20.7-5c28.1-0.5,56.3-0.4,84.4-0.2c19.4,0.1,20.8,4.6,15.9,22.8
		c-10,36.8-18.1,74.1-26.3,111.3c-4.1,18.9-4.9,38.7-10.4,57.2c-6.4,21.3-25.8,30.5-45.6,30.2c-69.2-1.2-136.7-10.2-188.2-63.7
		c-46.1-47.9-58.2-104.2-38.9-167.6c10.8-35.7,26.5-68.8,52.6-95.8c30.8-32,70-48.8,112.3-58.9c44.7-10.6,89.3-10.4,133.3,4.8
		c24.7,8.5,24.9,8.2,15,30.8c-4.6,10.6-9.4,21.1-14.1,31.7c-9.8-5.2-19.4-10.6-29.4-15.4c-44.3-21-110.8-7.1-146.2,39.5
		c-25.8,33.8-35.6,72.6-40.6,113.5c-1.2,10.1-3.2,20.5-2,30.4c5.7,46.7,38.7,68.2,78.7,82.5c8.1,2.9,16.6,4.8,25,7
		c17.1,4.6,29.8-3.8,32.9-20.9c2.7-15,8.2-29.9,8.4-44.9c0.2-13.3-3.3-27.5-8.7-39.7C5252.7,1330.1,5242.2,1315.4,5231.2,1296.8z"/>
	<path class="st7" d="M4262.9,1317.2c45.4-46.4,88-91.3,132.2-134.5c20.5-20,44.2-36.7,66.4-54.8c21.1-17.2,50.2-19.1,69.5,8.9
		c28.7,41.6,56.9,83.5,85.2,125.3c8.3,12.3,18.5,23.9,23.5,37.5c3.5,9.6,3.8,25.6-1.9,32.4c-19.4,23.3-41.4,44.6-63.9,65.1
		c-27,24.6-54.9,48.2-83.5,70.9c-19,15.1-39.8,28.2-60.2,41.5c-3.2,2.1-10.5,2.5-13,0.3c-17.8-16-37.2-31-51.5-49.8
		C4330.4,1413.7,4297.6,1365.7,4262.9,1317.2z M4358.6,1320.2c2.6,6,5.5,19.1,13,28.5c18,22.5,38.6,42.9,57.4,64.8
		c7.4,8.7,16.1,11.4,26,9.2c9.7-2.2,20.7-4.4,28.1-10.3c25.9-21,51.1-43.2,75.3-66.1c4.8-4.5,7.1-15.3,5.6-22.2
		c-8.2-38.5-26.7-71.3-56.2-98.1c-30-27.3-55.8-29.4-87-3.7c-13.1,10.8-24.5,23.7-37.9,34.2
		C4364,1271.2,4360.2,1291.6,4358.6,1320.2z"/>
	<path class="st7" d="M4123.8,1519.9c3.9-25,6.6-48.3,11.6-71.1c1.2-5.3,9.3-11.4,15.3-12.8c19.3-4.4,39.1-7.4,58.8-9.7
		c14.5-1.6,24.5,11.1,21,25.4c-4.9,19.8-9.9,39.5-15.9,58.9c-1.2,3.9-7.4,8.8-11.5,8.9C4177.6,1520.3,4152.1,1519.9,4123.8,1519.9z"
		/>
</g>
</svg>
