<svg viewBox="0 0 5961 1854.3" xmlns="http://www.w3.org/2000/svg" xmlns:xlink="http://www.w3.org/1999/xlink"><linearGradient id="a"><stop offset="0" stop-color="#00f6fe"/><stop offset="1" stop-color="#00fed6"/></linearGradient><linearGradient id="b" gradientTransform="rotate(-10 3059 1417)" gradientUnits="userSpaceOnUse" x1="1045.3" x2="1045.3" xlink:href="#a" y1="1368.5" y2="-238.7"/><linearGradient id="c" gradientTransform="rotate(-10 3059 1417)" gradientUnits="userSpaceOnUse" x1="1045.2" x2="1045.2" y1="-166" y2="1295.8"><stop offset="0" stop-color="#0a1021"/><stop offset="1" stop-color="#262c4c"/></linearGradient><linearGradient id="d" gradientTransform="rotate(-10 3059 1417)" gradientUnits="userSpaceOnUse" x1="1276.4" x2="1276.4" xlink:href="#a" y1="1134.7" y2="361.9"/><linearGradient id="e" gradientTransform="rotate(-10 3059 1417)" gradientUnits="userSpaceOnUse" x1="825.6" x2="825.6" xlink:href="#a" y1="1134.7" y2="357.8"/><linearGradient id="f" gradientTransform="rotate(-10 3059 1417)" gradientUnits="userSpaceOnUse" x1="722.7" x2="722.7" xlink:href="#a" y1="647.6" y2="433.5"/><linearGradient id="g" gradientTransform="rotate(-10 3059 1417)" gradientUnits="userSpaceOnUse" x1="1370.5" x2="1370.5" xlink:href="#a" y1="646.8" y2="433.2"/><path d="M1821 1586L314 1852c-21 3-41-11-45-32L4 314c-4-21 10-41 31-45L1542 3c21-3 41 11 45 32l265 1506c4 21-10 41-31 45z" fill="url(#b)"/><path d="M1775 1520L335 1774 81 335 1521 81l254 1439z" fill="url(#c)"/><path d="M948 719c23 1 40 9 58 16-16 8-22 29-18 47 30 145 89 476 93 496 17-14 56-48 70-58 72-59 131-123 192-195 22-26 15-36 12-44 20 0 39 10 45 32 8 33 15 67 19 101 1 10-8 23-15 32-64 85-141 156-226 219-15 11-28 22-23 43v8c-5 18-118 71-118 71l-7-40-119-676c-4-24 0-53 37-52z" fill="url(#d)"/><path d="M554 1121c-4 32 21 42 41 54 80 44 232 103 317 135-7-36-65-356-87-498-8-53 7-76 77-90-17 8-15 34-14 42l121 684 7 42c0 1-85-9-102-14-17-4-30-9-35-29-3-10-20-19-32-23-101-31-196-71-286-126-19-12-30-25-32-47-2-23-8-45-12-68-5-32 4-47 37-62z" fill="url(#e)"/><path d="M806 764s-11 15-6 43c25 148 47 285 76 447-126-40-218-77-274-111-8-4-17-14-16-25 13-141 77-254 193-336 14-11 27-18 27-18zM1096 1213s-53-291-84-433c-4-21 15-39 36-32a443 443 0 01266 235c6 15 4 26-2 32-106 125-216 198-216 198zM582 854c3 2 6 7 3 10-18 21-38 45-55 87s-12 44-19 56c-6 9-19 5-26 2-84-41-128-118-110-212 18-92 71-180 83-204 28-60 12-108-44-140-21-13 0 0 0 0l-34-14s39-9 69 1c73 22 112 93 98 175-4 27-14 53-23 78-35 96-23 120 58 161z" fill="#0affff" opacity=".8"/><path d="M571 1074c-39-16-46-29-39-62 14-61 48-112 93-156 13-12 29-20 52-3-56 63-91 137-106 221z" fill="url(#f)"/><path d="M1316 942c-43-71-99-131-175-170 12-23 29-23 44-17 63 26 115 65 150 124 14 24 9 39-19 63z" fill="url(#g)"/><path d="M1228 740c-3 3-3 9 0 11 25 13 52 29 82 62 30 34 26 37 37 46 8 7 19-1 25-6 65-68 80-155 30-237-48-80-128-145-146-163-48-47-49-98-8-147 16-19 0-1 0-1l28-24s-40 5-65 24c-61 46-74 126-32 199 13 23 31 44 48 65 65 78 63 104 1 171z" fill="#0affff" opacity=".8"/><g fill="#fff" stroke="#e5e5e5" stroke-miterlimit="10"><path d="M2895 18c-55 100-101 204-145 309l-132 321c-30 74-56 148-87 222-7 15-24 28-38 39a595 595 0 01-197 112c-5 2-13-1-18-4a581 581 0 01-154-165c-30-49-55-101-72-156-16-52-29-105-39-158-8-49-11-99-16-149-3-36-4-73-6-109l-10-167-3-57-3-6V19h269c20 15 21 19 6 40l-10 12c-6 10-16 19-17 29-4 37-5 75-7 112-2 54-6 108-6 163 0 89 0 178 3 266 2 52 9 103 16 153 3 20 13 40 25 57 7 11 20 19 26 33 4 8 15 15 24 18 10 4 22 5 28-9 16-35 34-69 48-105 53-138 105-275 155-413 27-78 61-153 77-235 6-29 12-57-7-84-4-4-1-16 2-23 3-6 11-10 16-14l272-1zM5930 344l-16 75-19 117-25 135-34 189c-4 24-11 48-12 72-1 19 3 39 6 58 3 22-2 31-25 32-23 2-46 1-70 0-14 0-21-15-12-27 20-28 30-59 36-92l24-133 14-79c3-16-1-21-17-22-17-2-29 5-41 16l-130 115-94 85c-5 5-11 10-17 13-7 4-13 4-19-4l-136-175c-13-16-27-31-38-48-9-15-20-16-34-14-14 3-21 13-24 27l-27 157a527 527 0 00-9 134c6 25-3 37-29 38h-58c-22-1-30-15-17-32 26-32 31-69 37-107l31-170 32-189c11-64 22-128 35-191 1-9 9-16 16-22 2-2 12 0 15 3l107 135 114 143 38 48 388-320 10 17zM3252 1836l-84-22c-40-9-78-25-110-51a83 83 0 01-31-68c0-4 3-10 7-13l76-51c14-9 14-9 31-6-1 33-8 66 7 99 9 19 22 34 40 42 44 19 89 27 135 4 36-17 54-50 62-86 3-16-6-36-14-52l-138-278c-17-33-36-65-53-99-7-13-5-25 8-36 57-50 122-85 197-98 53-9 107-11 157 12 35 17 60 43 76 77 3 7 2 19-3 26-12 17-31 28-54 36v-32c1-32-14-57-40-75l-13-5c-33-1-65 0-95 15-13 7-28 13-40 22a85 85 0 00-18 102 4992 4992 0 00189 372c13 25-1 40-15 54-52 55-115 91-190 105l-34 6h-53zM3740 1836c-13-12-14-21-1-32 22-17 21-41 25-65 8-38 14-77 21-116l23-135 23-130 24-137 11-56c-44-8-78 9-109 36s-57 60-77 97c-7 14-15 18-30 14-1-2-2-4-1-6 16-51 29-103 62-147 18-25 38-41 72-40h328c28 0 46 12 54 36 7 20 13 41 15 62 2 26-3 53-2 79 1 21-11 18-26 17 7-44-8-79-42-105-29-23-60-44-98-45-21 36-25 76-32 115l-19 113-24 137-18 103c-3 19-6 38-7 58-2 37-3 74-3 112l3 35h-172zM2313 1836c2-7 3-14 6-20 26-48 36-100 44-154l24-129 20-118c6-36 13-71 18-107 3-22 6-44 7-66v-107l-3-22h151c7 0 15 1 21 4 11 4 15 18 6 25-19 17-24 39-28 62l-27 154-23 135-20 114a22213 22213 0 00-27 161c-1 10 5 14 15 15 52 4 103-3 144-38 28-24 55-50 80-78 20-22 37-48 57-71 5-6 16-6 24-9l5 5-20 48c-17 37-33 74-52 110-14 26-31 50-47 75l-12 11h-363zM2958 1836l-72-74-55-61c-10-10-9-17 1-26 32-27 56-60 68-100 8-29 12-60 17-90l31-172c6-33 13-66 15-100 1-25-4-50-20-72-3-5-3-11-5-16 6-2 11-5 17-5h195c-8 12-15 25-25 33-29 23-37 54-43 87-10 65-23 129-34 193l-41 243-28 149v11h-21zM3199 1014c-13 3-26 8-39 8h-124c-10 0-21-4-34-7 19-24 33-46 35-73l2-16c0-37 1-74-1-111 0-16-5-33-10-49-5-14-17-16-30-8-75 52-150 104-227 154-54 36-111 69-167 102l-11 5c-27 10-47-9-42-37 19-96 46-190 94-276 26-47 57-91 93-133 52-60 115-108 182-150 8-5 18-10 21-17 11-22-6-36-17-50-11-15-24-29-37-45 21-5 38-14 60-9s46 2 69 4c27 2 55 7 77 22 9 6 19 17 20 27 5 34 7 68 10 102l16 118 9 89 15 110 10 80 17 114 9 46zm-420-204c13-4 24-6 33-11 20-11 40-23 58-36l114-88c6-4 11-12 11-18-3-51-5-101-10-152-2-21-21-28-40-16-34 22-68 46-95 79-21 26-36 55-43 88l-28 154zM3942 637h229c19-109 41-217 33-330l11-1 130 1c7 0 14 5 19 10 2 2-1 12-5 16-23 23-22 54-28 83l-23 133-24 137-19 112c-8 45-14 91-25 135-8 29 6 52 13 81-10 3-21 8-31 8h-138c24-53 41-106 48-163 7-55 20-111 30-167h-229l-37 199c-3 18-7 37-9 56-1 10 2 21 5 32 2 11 7 21 11 34-7 3-14 9-22 9h-147l18-44c19-39 24-83 31-125 11-57 22-115 31-172 11-59 21-119 28-179 7-54 10-109 13-164 1-10-2-20-3-32h148c13 0 21 18 12 26-28 23-25 56-31 86-9 43-16 87-23 131l-16 88zM4853 343l-32 88c-4 10-11 9-18 0-17-25-37-45-67-50-50-9-97-2-139 29-48 37-76 87-97 142l-21 58h130l83-1c28-1 56-5 79-22 10-6 19-17 21-27 3-15 12-13 25-12-3 13-3 27-8 39-9 26-18 51-31 75-12 21-33 32-59 32h-252c-10 50-5 97 24 139 26 37 65 57 105 74 26 10 54 11 81 8 11-1 23-7 31-15 25-26 50-53 73-81 17-21 30-44 45-66 9-13 9-13 29-11l-11 31c-27 63-53 128-83 191-9 19-17 43-42 52-7 2-15 6-23 6-74 3-147-6-214-41-49-27-88-65-115-115-22-38-36-79-44-121-4-19-1-41 2-60 5-33 12-65 22-97 25-81 75-143 144-192 68-48 145-75 225-92 19-4 41 4 61 8 27 7 54 13 76 31zM3740 777c-27 57-51 112-79 166-13 26-31 49-48 73-3 3-9 6-14 6l-357 1c8-20 15-39 24-57 17-33 20-69 26-105l24-132 20-115 18-106c3-20 6-40 7-61l3-110c0-12-2-23-4-37h150c8 0 16 1 22 5 10 4 15 11 7 22-2 3-3 7-6 9-17 11-19 29-22 47l-41 238-40 222-19 104c-2 13 5 21 20 23 61 5 114-12 161-54 38-34 70-72 101-112 3-4 7-8 9-13 7-15 18-18 38-14zM4865 873c43-38 76-79 85-134l31-174c9-48 19-96 25-145 4-33 2-67-20-96-8-10-6-18 6-18h202l-9 17-39 43c-16 16-13 38-17 57-8 39-14 79-21 118l-26 152-20 112-24 135-13 74c-1 10-18 13-26 5l-56-58-56-60-22-28zM4761 1112c13 6 28 10 41 17 15 7 27-2 40-6 46-13 126 13 152 55 17 27 12 41-11 55l-125 78c-11 7-14 17-9 28 38 78 78 156 133 224l44 47 8 11c-4 5-10 11-15 11-26 2-51-4-73-18-37-23-62-57-83-93-25-44-41-92-72-131-8-10-16-21-25-30-2-3-8-6-11-5-4 2-7 7-8 11l-19 137c-1 13-13 12-20 13-17 2-34 2-50 0-14-1-14-7-9-21 10-24 20-49 25-75 13-63 24-127 35-191 6-30 10-61 17-92 5-24 5-21 33-21l1-4zm28 55l-27 152 4 4c39-23 79-45 117-69 11-8 21-21 25-34 2-7-11-18-17-27l-1-3c-12-8-24-20-37-22-21-4-42-1-64-1zM5231 1297c8-2 14-5 21-5h84c20 0 21 4 16 22-10 37-18 74-26 112-4 19-5 38-11 57-6 21-25 30-45 30-69-1-137-10-188-64-46-48-59-104-39-167 11-36 26-69 52-96 31-32 70-49 113-59 44-11 89-10 133 5 25 8 25 8 15 31l-14 31-30-15c-44-21-110-7-146 39-25 34-35 73-40 114-2 10-4 20-2 30 5 47 38 69 78 83l25 7c17 4 30-4 33-21 3-15 8-30 9-45 0-13-4-27-9-40-7-16-18-31-29-49zM4263 1317c45-46 88-91 132-134 21-20 44-37 66-55 22-17 51-19 70 9l85 125c8 12 19 24 24 38 3 9 3 25-2 32a1611 1611 0 01-147 136c-20 15-40 28-61 42-3 2-10 2-13 0-18-16-37-31-51-50-36-46-68-94-103-143zm96 3c2 6 5 19 13 29l57 65c7 8 16 11 26 9s21-5 28-11c26-21 51-43 75-66 5-4 7-15 6-22-8-38-27-71-56-98-30-27-56-29-87-4l-38 35c-19 14-23 35-24 63zM4124 1520c4-25 6-48 11-71 2-5 10-12 16-13l59-10c14-1 24 11 21 26l-16 59c-2 4-8 8-12 9h-79z"/></g></svg>